<?xml version="1.0" standalone="no"?>
<!DOCTYPE svg PUBLIC "-//W3C//DTD SVG 20010904//EN"
 "http://www.w3.org/TR/2001/REC-SVG-20010904/DTD/svg10.dtd">
<svg version="1.0" xmlns="http://www.w3.org/2000/svg"
 width="1264.000000pt" height="1264.000000pt" viewBox="0 0 1264.000000 1264.000000"
 preserveAspectRatio="xMidYMid meet">
<metadata>
Created by potrace 1.14, written by Peter Selinger 2001-2017
</metadata>
<g transform="translate(0.000000,1264.000000) scale(0.100000,-0.100000)"
fill="#000000" stroke="none">
<path d="M4696 8801 c-3 -5 -15 -61 -26 -124 -54 -315 -51 -725 6 -1059 l17
-98 1119 0 c615 0 1118 -2 1118 -4 0 -2 -9 -55 -19 -118 -53 -305 -53 -721 -1
-1025 11 -63 20 -117 20 -119 0 -2 -575 -5 -1277 -6 l-1278 -3 -12 -55 c-62
-276 -67 -776 -13 -1096 11 -64 20 -118 20 -120 0 -2 -143 -5 -317 -6 l-318
-3 -12 -55 c-34 -154 -47 -307 -47 -580 0 -271 7 -364 41 -558 l16 -92 319 0
c175 0 318 -2 318 -4 0 -2 -9 -56 -20 -119 -54 -315 -51 -725 6 -1060 l17 -97
1287 0 1287 0 17 98 c57 328 59 746 6 1059 -11 63 -20 117 -20 119 0 2 140 4
310 4 171 0 310 -2 310 -4 0 -2 -9 -56 -20 -119 -54 -315 -51 -725 6 -1059
l17 -98 647 0 647 0 16 93 c33 185 41 295 41 562 0 268 -13 422 -47 575 l-12
55 -319 3 -318 2 6 33 c67 331 73 768 15 1118 l-21 125 21 125 c53 322 53 707
0 1030 l-21 125 21 125 c56 334 50 820 -12 1099 l-12 55 -318 3 c-174 1 -317
4 -317 6 0 2 9 55 19 118 55 322 50 821 -12 1098 l-12 55 -1442 3 c-858 1
-1444 -2 -1447 -7z m2234 -3845 c0 -2 -9 -55 -19 -118 -53 -305 -53 -721 -1
-1025 11 -63 20 -117 20 -119 0 -2 -428 -4 -951 -4 l-951 0 6 33 c67 329 73
780 15 1115 -10 63 -19 116 -19 118 0 2 428 4 950 4 523 0 950 -2 950 -4z"/>
</g>
</svg>
