<svg width="328" height="757" viewBox="0 0 328 757" fill="none" xmlns="http://www.w3.org/2000/svg">
<g clip-path="url(#clip0_478_2493)">
<rect x="-16" y="365" width="371" height="413" fill="#F9DF80"/>
<path d="M328.879 11.6056C293.879 14.6454 286.657 11.4254 273.157 6.92128C255.395 0.995218 239.75 2.26559 221.988 6.92137C204.226 11.5772 186.464 17.7873 168.703 25.552C150.941 33.3166 133.179 30.6232 115.417 17.4719C97.6549 4.3205 79.8929 0.2786 62.131 5.34615C44.3691 10.4137 17.1453 15.4996 -0.616638 18.6329" stroke="#F9DF80" stroke-width="4"/>
<path d="M329 11.7291L302.382 11.7291L277.109 8.95371L260.154 2.84784H243.2L212.373 8.95371L191.308 17.2799L167.161 25.6061L148.151 28.3815H137.362L100.37 8.95371L79.3057 2.84784L49.5068 8.95371L12.5151 17.2799H-0.843018V390.293L329 390.293V11.7291Z" fill="#F9DF80"/>
</g>
<defs>
<clipPath id="clip0_478_2493">
<rect width="328" height="757" fill="white"/>
</clipPath>
</defs>
</svg>
