<svg width="1512" height="460" viewBox="0 0 1512 460" fill="none" xmlns="http://www.w3.org/2000/svg">
<g clip-path="url(#clip0_511_2499)">
<path d="M1512.5 30C1350.13 53.4026 1342.38 41.0361 1261.19 19.9283C1180.01 -1.17944 1098.82 -3.44171 1017.64 13.1415C936.455 29.7247 855.27 51.8446 774.085 79.501C692.9 107.157 611.715 97.564 530.53 50.7208C449.345 3.87759 368.16 -10.5191 286.975 7.5308C205.79 25.5807 80.185 46.8396 -1.00001 58" stroke="#F9DF80" stroke-width="4"/>
<path d="M1512.5 30.5L1421.08 42.5L1340.71 40.5L1305.04 33L1269.58 23.7249L1211.61 9L1166.9 5L1114.59 1.97668L1043.83 9L973.692 23.7249L922.772 36L876.559 49.5L810.252 68.5L736.411 91.5L687.685 96.5L630.923 91.5L594.755 80L559.593 67L493.286 32L467.668 21L443.556 13.5L415.426 6L365.194 0.5L317.975 1.97668L274.273 10.5L181.343 30L60.2833 49.5L-0.863403 59V460H1512.5L1512.5 30.5Z" fill="#F9DF80"/>
</g>
<defs>
<clipPath id="clip0_511_2499">
<rect width="1512" height="460" fill="white"/>
</clipPath>
</defs>
</svg>
