<svg width="1512" height="463" viewBox="0 0 1512 463" fill="none" xmlns="http://www.w3.org/2000/svg">
<g clip-path="url(#clip0_511_2499)">
<path d="M1512.33 33C1349.96 56.4026 1342.21 44.0361 1261.03 22.9283C1179.84 1.82056 1098.66 -0.441711 1017.47 16.1415C936.289 32.7247 855.104 54.8446 773.919 82.501C692.734 110.157 611.549 100.564 530.364 53.7208C449.179 6.87759 367.994 -7.51907 286.809 10.5308C205.624 28.5807 80.019 49.8396 -1.16603 61" stroke="#F9DF80" stroke-width="4"/>
<path d="M1512.33 33.5L1420.91 45.5L1340.54 43.5L1304.87 36L1269.42 26.7249L1211.44 12L1166.74 8L1114.43 4.97668L1043.67 12L973.526 26.7249L922.606 39L876.393 52.5L810.086 71.5L736.245 94.5L687.519 99.5L630.757 94.5L594.589 83L559.427 70L493.12 35L467.502 24L443.39 16.5L415.26 9L365.028 3.5L317.809 4.97668L274.107 13.5L181.177 33L60.1173 52.5L-1.02942 62V463H1512.33L1512.33 33.5Z" fill="#F9DF80"/>
</g>
<defs>
<clipPath id="clip0_511_2499">
<rect width="1512" height="463" fill="white"/>
</clipPath>
</defs>
</svg>
